<svg width="100" height="100" viewBox="0 0 100 100" fill="none" xmlns="http://www.w3.org/2000/svg">
<rect width="100" height="100" fill="white"/>
<rect width="100" height="100" fill="white"/>
<path fill-rule="evenodd" clip-rule="evenodd" d="M20.7069 0.915291C21.9273 -0.305097 23.9059 -0.305097 25.1263 0.915291L69.7914 45.5804C70.3723 46.1605 70.8332 46.8494 71.1476 47.6078C71.4621 48.3661 71.6239 49.1791 71.6239 50C71.6239 50.8209 71.4621 51.6339 71.1476 52.3922C70.8332 53.1506 70.3723 53.8395 69.7914 54.4196L25.1263 99.0847C23.9059 100.305 21.9273 100.305 20.7069 99.0847C19.4865 97.8643 19.4865 95.8857 20.7069 94.6653L65.3722 50L20.7069 5.33471C19.4865 4.11432 19.4865 2.13568 20.7069 0.915291Z" fill="black"/>
</svg>
