<svg width="100" height="100" viewBox="0 0 100 100" fill="none" xmlns="http://www.w3.org/2000/svg">
<rect width="100" height="100" transform="matrix(-1 0 0 1 100 0)" fill="white"/>
<rect width="100" height="100" transform="matrix(-1 0 0 1 100 0)" fill="white"/>
<path fill-rule="evenodd" clip-rule="evenodd" d="M79.2931 0.915291C78.0727 -0.305097 76.0941 -0.305097 74.8737 0.915291L30.2086 45.5804C29.6277 46.1605 29.1668 46.8494 28.8524 47.6078C28.5379 48.3661 28.3761 49.1791 28.3761 50C28.3761 50.8209 28.5379 51.6339 28.8524 52.3922C29.1668 53.1506 29.6277 53.8395 30.2086 54.4196L74.8737 99.0847C76.0941 100.305 78.0727 100.305 79.2931 99.0847C80.5135 97.8643 80.5135 95.8857 79.2931 94.6653L34.6278 50L79.2931 5.33471C80.5135 4.11432 80.5135 2.13568 79.2931 0.915291Z" fill="black"/>
</svg>
